<svg width="130" height="37" viewBox="0 0 130 37" fill="none" xmlns="http://www.w3.org/2000/svg"><path d="M53.9136 8.57312C54.9657 8.57312 55.4917 8.89667 55.4917 9.57175V23.195C55.4917 24.1608 55.777 24.9514 56.3198 25.5669C56.5707 25.8594 56.8823 26.0924 57.2325 26.2493C57.5826 26.4061 57.9628 26.483 58.3457 26.4743C59.2028 26.4743 59.8877 26.1816 60.4004 25.5961C60.9144 25.0098 61.1708 24.1912 61.1708 23.1634V9.54012C61.1708 8.86626 61.6969 8.54149 62.7489 8.54149C63.801 8.54149 64.327 8.86626 64.327 9.54012V22.9201C64.327 24.8371 63.7693 26.3823 62.6538 27.5557C61.538 28.7282 60.1152 29.3011 58.3589 29.3011C57.4284 29.3174 56.5084 29.101 55.6807 28.6711C54.9052 28.273 54.2425 27.6824 53.7547 26.9548C53.2669 27.6824 52.6042 28.273 51.8288 28.6711C51.0032 29.1047 50.0844 29.3253 49.1541 29.3133C47.3967 29.3133 45.9739 28.7124 44.858 27.5398C43.7422 26.3673 43.1848 24.8213 43.1848 22.9043V9.56445C43.1848 8.82247 43.7638 8.46973 44.9206 8.46973C46.0774 8.46973 46.6564 8.82612 46.6564 9.56445V23.2315C46.6564 24.2046 46.8971 24.9466 47.3846 25.5C47.8721 26.0534 48.5161 26.3296 49.3238 26.3296C49.6852 26.3385 50.044 26.2668 50.3748 26.1196C50.7056 25.9725 51.0002 25.7534 51.2377 25.4781C51.7505 24.8979 52.0202 24.1511 52.0202 23.2376V9.54742C52.0202 9.01831 52.5739 8.57433 53.4526 8.57433L53.9136 8.57312Z" fill="#FF7276"></path><path d="M80.7381 22.6733C80.7381 24.6438 80.0989 26.2434 78.8458 27.4439C77.5928 28.6445 76.005 29.2429 74.1116 29.2429C72.2181 29.2429 70.6316 28.6432 69.3785 27.4439C68.1255 26.2446 67.4851 24.6463 67.4851 22.6733V15.0188C67.4851 13.0483 68.1255 11.4488 69.3785 10.2482C70.6316 9.04767 72.2241 8.44922 74.1116 8.44922C75.999 8.44922 77.5927 9.04888 78.8446 10.2482C80.0965 11.4475 80.7369 13.0458 80.7369 15.0188L80.7381 22.6733ZM77.2677 15.1319C77.2677 13.9605 76.962 13.0471 76.3481 12.361C75.7342 11.675 74.9289 11.3332 73.9539 11.3332C72.9789 11.3332 72.1724 11.6762 71.5597 12.361C70.947 13.0458 70.6412 13.9605 70.6412 15.1319V22.5517C70.6412 23.7231 70.947 24.6365 71.5597 25.3226C72.1724 26.0086 72.9801 26.3504 73.9539 26.3504C74.9277 26.3504 75.7354 26.0074 76.3481 25.3226C76.9608 24.6378 77.2677 23.7231 77.2677 22.5517V15.1319Z" fill="#FF7276"></path><path d="M88.6921 27.8218C87.4883 26.3001 86.405 24.4294 85.4709 22.235C84.6594 20.3552 84.2422 18.3258 84.2455 16.2749V9.56421C84.2455 8.82223 84.8233 8.46948 85.9801 8.46948C87.1369 8.46948 87.7158 8.82588 87.7158 9.56421V16.3393C87.712 17.8473 87.9884 19.3426 88.5308 20.7474C89.0917 22.274 89.9343 23.8577 91.0297 25.4997C92.1251 23.8577 92.9677 22.274 93.5286 20.7474C94.0706 19.3425 94.3466 17.8472 94.3424 16.3393V9.56421C94.3424 8.82223 94.9214 8.46948 96.0781 8.46948C97.2349 8.46948 97.8139 8.82588 97.8139 9.56421V16.27C97.8172 18.3209 97.4 20.3503 96.5885 22.2302C95.6472 24.4196 94.5639 26.2952 93.3673 27.8169C92.5693 28.8107 91.8025 29.3082 91.0297 29.3082C90.2569 29.3082 89.4901 28.8155 88.6921 27.8218Z" fill="#FF7276"></path><path d="M102.279 29.0493C101.643 29.0493 101.325 28.6844 101.325 27.9241V9.76747C101.325 9.00846 101.643 8.64233 102.279 8.64233H111.855C112.457 8.64233 112.781 9.12037 112.781 10.0776C112.781 11.0349 112.462 11.5117 111.855 11.5117H104.796V16.9331H110.802C111.377 16.9331 111.679 17.4111 111.679 18.3672C111.679 19.3232 111.377 19.8025 110.802 19.8025H104.796V26.1799H111.998C112.606 26.1799 112.925 26.6579 112.925 27.6152C112.925 28.5725 112.606 29.0493 111.998 29.0493H102.279Z" fill="#FF7276"></path><path d="M119.845 28.1386C119.845 28.8684 119.276 29.2187 118.137 29.2187C116.999 29.2187 116.432 28.8684 116.432 28.1386V15.0116C116.432 13.0107 117.082 11.3868 118.382 10.1693C119.682 8.95169 121.293 8.34473 123.216 8.34473C125.138 8.34473 126.749 8.95291 128.05 10.1693C129.351 11.3856 130 13.0131 130 15.0116V28.1288C130 28.8708 129.421 29.2236 128.264 29.2236C127.107 29.2236 126.528 28.8672 126.528 28.1288V15.0882C126.528 13.9169 126.222 13.0034 125.61 12.3174C124.999 11.6313 124.19 11.2895 123.216 11.2895C122.242 11.2895 121.433 11.6326 120.822 12.3174C120.21 13.0022 119.902 13.9169 119.902 15.0882L119.845 28.1386Z" fill="#FF7276"></path><path d="M31.8627 24.6887V30.6282H33.2241C34.5975 30.6282 35.8458 29.7062 36.1503 28.3524C36.2532 27.9153 36.2568 27.4603 36.1608 27.0216C36.0648 26.5829 35.8718 26.1719 35.5961 25.8194C35.3204 25.4668 34.9693 25.182 34.5692 24.9862C34.169 24.7903 33.7301 24.6886 33.2855 24.6887H31.8627Z" fill="#FF7276"></path><path d="M23.1979 24.6887H3.03674C1.6645 24.6887 0.415034 25.6119 0.111695 26.9645C0.00866147 27.4013 0.00481504 27.8559 0.100445 28.2943C0.196074 28.7328 0.388698 29.1436 0.66387 29.4961C0.939041 29.8486 1.28962 30.1336 1.68931 30.3297C2.08901 30.5257 2.52745 30.6278 2.97174 30.6282H23.1943L23.1979 24.6887Z" fill="#FF7276"></path><path d="M30.3141 4.37621V3.03821C30.3141 1.64791 29.3981 0.38289 28.0559 0.0812323C27.626 -0.0225192 27.1785 -0.0269429 26.7467 0.0682905C26.3149 0.163524 25.91 0.355961 25.562 0.631272C25.214 0.906583 24.9319 1.25767 24.7368 1.6584C24.5417 2.05913 24.4386 2.49918 24.4351 2.94576V4.37621H30.3141Z" fill="#FF7276"></path><path d="M24.4351 13.4387V33.8979C24.4351 35.2882 25.3511 36.5532 26.6933 36.8561C27.1237 36.96 27.5717 36.9643 28.004 36.8687C28.4363 36.7731 28.8416 36.5799 29.1896 36.3038C29.5377 36.0277 29.8195 35.6756 30.014 35.274C30.2085 34.8723 30.3106 34.4314 30.3129 33.9843V13.4387H24.4351Z" fill="#FF7276"></path><path d="M4.33387 5.93604H3.02903C1.55688 5.93604 0.241207 6.99184 0.0317594 8.46606C-0.0301623 8.88827 -0.00131281 9.319 0.116343 9.72892C0.233999 10.1388 0.437698 10.5183 0.713566 10.8415C0.989435 11.1647 1.33099 11.4241 1.71498 11.6019C2.09897 11.7797 2.51637 11.8718 2.93875 11.8719H4.33387V5.93604Z" fill="#FF7276"></path><path d="M13.3004 5.93604V11.8755H33.2823C34.7556 11.8755 36.0713 10.8197 36.2819 9.34671C36.3437 8.92444 36.3146 8.49368 36.1968 8.08376C36.079 7.67384 35.8752 7.29438 35.5993 6.9712C35.3233 6.64802 34.9817 6.38871 34.5976 6.21092C34.2136 6.03313 33.7962 5.94104 33.3737 5.9409L13.3004 5.93604Z" fill="#FF7276"></path><path d="M11.7552 23.4402V3.23277C11.7552 1.84369 10.8403 0.577454 9.49819 0.27458C9.06772 0.170694 8.6196 0.16641 8.18727 0.262047C7.75494 0.357684 7.34958 0.550772 7.00144 0.826894C6.65331 1.10302 6.3714 1.45504 6.17676 1.85668C5.98212 2.25832 5.87978 2.6992 5.87738 3.14641L5.87738 23.4402H11.7552Z" fill="#FF7276"></path><path d="M5.87738 32.1917V33.7863C5.87738 35.1754 6.79221 36.4416 8.13436 36.7445C8.56483 36.8484 9.01295 36.8527 9.44528 36.757C9.87761 36.6614 10.283 36.4683 10.6311 36.1922C10.9792 35.9161 11.2612 35.564 11.4558 35.1624C11.6504 34.7608 11.7528 34.3199 11.7552 33.8727V32.1917H5.87738Z" fill="#FF7276"></path></svg>