<svg xmlns="http://www.w3.org/2000/svg" viewBox="0 0 690.61 71.62"><defs><style>.cls-1{fill:#231f20;}</style></defs><g id="Layer_2" data-name="Layer 2"><g id="Layer_1-2" data-name="Layer 1"><path class="cls-1" d="M11.38,9.63Q0,19.56,0,35.81T11.38,61.89q11,9.63,27.93,9.63,13.34,0,21.21-5.55V51.57Q53,58.29,41.94,58.29q-10,0-16.64-6.28t-6.62-16.2q0-10,6.62-16.25t16.64-6.23q11.09,0,18.58,6.72V5.55Q52.65.09,39.31.1,22.38.1,11.38,9.63Z"/><path class="cls-1" d="M133.28,10Q122.42,0,105.21,0,88.28,0,77.33,10.12t-11,25.69q0,15.57,10.9,25.69T105,71.62q18.88,0,29.68-11.39a34.31,34.31,0,0,0,9.44-24.42Q144.13,20,133.28,10ZM119.7,51.77A18.48,18.48,0,0,1,105.21,58,18.45,18.45,0,0,1,90.8,51.67q-5.64-6.33-5.64-15.86,0-9.74,5.55-16a18.49,18.49,0,0,1,14.5-6.23,18.48,18.48,0,0,1,14.49,6.23q5.55,6.22,5.55,16T119.7,51.77Z"/><path class="cls-1" d="M203.41,49.72q-6.24-10.11-9.73-12.45A16,16,0,0,0,201.12,31a16.65,16.65,0,0,0,2.77-9.24q0-9.25-6.22-14.65t-16.55-5.4H147.36V3.89q6.42,2.15,6.42,14V40.64h0v13q0,11.87-6.42,14v2.14h24V41.94h3a8,8,0,0,1,5.25,1.85q3.3,2.82,8.55,11.88l8.22,14.1h18.75l-9.44-16.25Zm-19.85-21a10,10,0,0,1-7,2.33h-5.16V13.43h5.16a10,10,0,0,1,7,2.33,8.46,8.46,0,0,1,2.53,6.52A8.34,8.34,0,0,1,183.56,28.71Z"/><path class="cls-1" d="M280.54,10Q269.7,0,252.47,0q-16.93,0-27.88,10.12t-11,25.69q0,15.57,10.9,25.69t27.73,10.12q18.89,0,29.68-11.39a34.31,34.31,0,0,0,9.44-24.42Q291.39,20,280.54,10ZM267,51.77a19.79,19.79,0,0,1-28.9-.1q-5.65-6.33-5.65-15.86,0-9.74,5.55-16a20,20,0,0,1,29,0q5.53,6.22,5.54,16T267,51.77Z"/><path class="cls-1" d="M350.22,41.64,316.65,1.75h-22V3.89q6.42,2.15,6.42,14V69.77h16.54V28l35.15,41.77h14v-68H350.22Z"/><path class="cls-1" d="M684.26,56V1.75H667.72V41.64L634.15,1.75h-22V3.89q6.42,2.15,6.42,14V69.77h16.54V28l35.16,41.77h20.33V67.63Q684.85,65.71,684.26,56Z"/><path class="cls-1" d="M399.37,1.75l-27.15,68h16.92l5.25-14.6h26.35l5.59,14.6h19.16l-28-68Zm-.78,41.94L405.69,24a36.68,36.68,0,0,0,1.44-5.74h.19a36.88,36.88,0,0,0,1.44,5.76l7.57,19.64Z"/><path class="cls-1" d="M436.36,14h0v6.43h2.14q2.14-6.44,14-6.43h4.08V69.77h17.61V14h20.73V1.75H436.36Z"/><path class="cls-1" d="M504.06,69.77h24V67.63q-5.84-1.95-6.36-11.93V17.9q0-11.86,6.42-14.11v-2h-24Z"/><path class="cls-1" d="M598,10Q587.19,0,570,0,553,0,542.09,10.12t-11,25.69q0,15.57,10.9,25.69t27.73,10.12q18.88,0,29.68-11.39a34.27,34.27,0,0,0,9.44-24.42Q608.89,20,598,10Zm-13.57,41.8a19.79,19.79,0,0,1-28.9-.1q-5.64-6.33-5.64-15.86,0-9.74,5.54-16a20,20,0,0,1,29,0q5.55,6.22,5.55,16T584.47,51.77Z"/></g></g></svg>